<svg width="47" height="39" viewBox="0 0 47 39" fill="none" xmlns="http://www.w3.org/2000/svg">
<path d="M11.65 38.5C9.45 38.5 7.65 38.05 6.25 37.15C4.85 36.25 3.7 35.1 2.8 33.7C1.8 32 1.1 30.25 0.7 28.45C0.4 26.55 0.250001 25 0.250001 23.8C0.250001 18.9 1.5 14.45 4 10.45C6.5 6.45 10.4 3.19999 15.7 0.699991L17.05 3.39999C13.95 4.69999 11.25 6.74999 8.95 9.54999C6.75 12.35 5.65 15.2 5.65 18.1C5.65 19.3 5.8 20.35 6.1 21.25C7.7 19.95 9.55 19.3 11.65 19.3C14.25 19.3 16.5 20.15 18.4 21.85C20.3 23.55 21.25 25.9 21.25 28.9C21.25 31.7 20.3 34 18.4 35.8C16.5 37.6 14.25 38.5 11.65 38.5ZM37.15 38.5C34.95 38.5 33.15 38.05 31.75 37.15C30.35 36.25 29.2 35.1 28.3 33.7C27.3 32 26.6 30.25 26.2 28.45C25.9 26.55 25.75 25 25.75 23.8C25.75 18.9 27 14.45 29.5 10.45C32 6.45 35.9 3.19999 41.2 0.699991L42.55 3.39999C39.45 4.69999 36.75 6.74999 34.45 9.54999C32.25 12.35 31.15 15.2 31.15 18.1C31.15 19.3 31.3 20.35 31.6 21.25C33.2 19.95 35.05 19.3 37.15 19.3C39.75 19.3 42 20.15 43.9 21.85C45.8 23.55 46.75 25.9 46.75 28.9C46.75 31.7 45.8 34 43.9 35.8C42 37.6 39.75 38.5 37.15 38.5Z" fill="#373637"/>
</svg>
